<svg width="1024" height="1024" viewBox="174.422 174.422 728.156 728.156" fill="none" xmlns="http://www.w3.org/2000/svg">
<rect x="174.422" y="174.422" width="728.156" height="728.156" fill="url(#paint0_linear_1_2)"/>
<path d="M734.023 174.422H342.977C249.886 174.422 174.422 249.886 174.422 342.977V734.023C174.422 827.114 249.886 902.578 342.977 902.578H734.023C827.114 902.578 902.578 827.114 902.578 734.023V342.977C902.578 249.886 827.114 174.422 734.023 174.422Z" fill="url(#paint0_linear_1_2)"/>
<path fill-rule="evenodd" clip-rule="evenodd" d="M616.156 642.72L578.305 749.691C573.74 762.594 562.086 771.647 548.475 772.862C534.865 774.078 521.797 767.233 515.026 755.341L431.118 607.992C428.018 602.549 423.517 598.039 418.085 594.935L271.019 510.864C259.151 504.08 252.32 490.986 253.532 477.35C254.746 463.714 263.78 452.037 276.659 447.463L674.877 306.012C687.575 301.501 701.731 304.709 711.257 314.254C720.785 323.798 723.985 337.981 719.483 350.705L683.773 451.625C682.734 450.498 681.669 449.387 680.577 448.293C656.134 423.803 615.057 419.8 584.904 421.031L584.868 421.033C583.34 421.098 582.01 421.306 580.859 421.641C579.913 421.892 578.996 422.215 578.116 422.604L575.281 423.264L567.156 428.829L563.006 432.987L559.679 437.053L557.23 441.648L555.718 446.632L555.201 451.864L555.718 457.098L557.23 462.082L559.679 466.677L563.006 470.743L607.011 514.833L586.218 535.666L542.213 491.576L538.155 488.241L533.569 485.788L528.595 484.274L523.372 483.757L518.149 484.274L513.174 485.788L508.588 488.241L504.53 491.576L500.379 495.736L494.825 503.875L492.68 513.134C492.634 513.22 492.607 513.335 492.599 513.48L492.598 513.515C491.369 543.727 495.363 584.883 519.806 609.373C545.804 635.421 581.302 646.212 615.166 641.729L616.156 642.72Z" fill="white"/>
<path fill-rule="evenodd" clip-rule="evenodd" d="M807.947 736.517C788.277 756.245 756.384 756.245 736.713 736.517L622.234 621.705C591.427 628.777 557.775 620.288 533.799 596.243C513.033 575.416 511.015 540.036 512.06 514.343V514.339C512.144 512.344 512.972 510.454 514.379 509.042L518.528 504.881C520.018 503.386 522.039 502.546 524.147 502.546C526.254 502.546 528.275 503.386 529.765 504.881L581.618 556.884C584.575 559.85 589.369 559.85 592.326 556.884L628.837 520.268C631.794 517.302 631.794 512.494 628.837 509.528L576.984 457.525C575.494 456.03 574.657 454.003 574.657 451.889C574.657 449.776 575.494 447.749 576.984 446.255L581.133 442.094C582.54 440.682 584.426 439.851 586.415 439.767H586.419C612.038 438.72 647.315 440.743 668.081 461.57C692.057 485.616 700.521 519.366 693.47 550.262L807.95 665.073C827.62 684.802 827.62 716.787 807.95 736.515L807.947 736.517ZM791.765 682C781.236 671.441 764.135 671.445 753.601 682.01C743.066 692.575 743.062 709.726 753.591 720.286C764.121 730.846 781.222 730.842 791.757 720.277C802.29 709.712 802.295 692.56 791.765 682Z" fill="white"/>
<defs>
<linearGradient id="paint0_linear_1_2" x1="248.586" y1="201.391" x2="828.414" y2="875.609" gradientUnits="userSpaceOnUse">
<stop stop-color="#131718"/>
<stop offset="1" stop-color="#020302"/>
</linearGradient>
</defs>
</svg>
